<svg width="48" height="48" viewBox="0 0 48 48" fill="none" xmlns="http://www.w3.org/2000/svg">
<path d="M44 40H4C1.794 40 0 38.206 0 36V6C0 3.794 1.794 2 4 2H44C46.206 2 48 3.794 48 6V36C48 38.206 46.206 40 44 40ZM4 4C2.897 4 2 4.897 2 6V36C2 37.103 2.897 38 4 38H44C45.103 38 46 37.103 46 36V6C46 4.897 45.103 4 44 4H4ZM38 46H10C9.73478 46 9.48043 45.8946 9.29289 45.7071C9.10536 45.5196 9 45.2652 9 45C9 44.7348 9.10536 44.4804 9.29289 44.2929C9.48043 44.1054 9.73478 44 10 44H38C38.2652 44 38.5196 44.1054 38.7071 44.2929C38.8946 44.4804 39 44.7348 39 45C39 45.2652 38.8946 45.5196 38.7071 45.7071C38.5196 45.8946 38.2652 46 38 46Z" fill="#16B3AC"/>
<path d="M31.02 46H17C16.8416 45.9997 16.6855 45.9617 16.5446 45.8894C16.4036 45.817 16.2819 45.7123 16.1893 45.5838C16.0966 45.4553 16.0358 45.3066 16.0118 45.15C15.9878 44.9934 16.0012 44.8334 16.051 44.683L18.051 38.683C18.1175 38.484 18.245 38.3109 18.4153 38.1884C18.5856 38.0658 18.7902 37.9999 19 38H29C29.21 37.9999 29.4146 38.066 29.585 38.1888C29.7553 38.3115 29.8827 38.4848 29.949 38.684L31.889 44.505C31.9757 44.6571 32.0209 44.8293 32.0201 45.0043C32.0193 45.1794 31.9726 45.3512 31.8847 45.5025C31.7967 45.6539 31.6705 45.7795 31.5188 45.8668C31.3671 45.9541 31.1951 46 31.02 46ZM18.387 44H29.613L28.28 40H19.721L18.387 44ZM44 32H4V6H44V32ZM6 30H42V8H6V30Z" fill="#16B3AC"/>
<path d="M24 37C25.1046 37 26 36.1046 26 35C26 33.8954 25.1046 33 24 33C22.8954 33 22 33.8954 22 35C22 36.1046 22.8954 37 24 37Z" fill="#16B3AC"/>
</svg>
