<svg width="44" height="44" viewBox="0 0 44 44" fill="none" xmlns="http://www.w3.org/2000/svg">
<path d="M3.6334 37.4667H21.0334V41.3334H13.3001V43.2667H30.7001V41.3334H22.9667V37.4667H40.3667C41.9656 37.4667 43.2667 36.1656 43.2667 34.5667V26.8334C43.2667 26.0881 42.9767 25.4143 42.5127 24.9001C42.9767 24.3858 43.2667 23.712 43.2667 22.9667V15.2334C43.2667 14.4881 42.9767 13.8143 42.5127 13.3001C42.9767 12.7858 43.2667 12.112 43.2667 11.3667V3.6334C43.2667 2.03453 41.9656 0.733398 40.3667 0.733398H3.6334C2.03453 0.733398 0.733398 2.03453 0.733398 3.6334V11.3667C0.733398 12.112 1.0234 12.7858 1.4874 13.3001C1.00437 13.8283 0.735544 14.5176 0.733398 15.2334V22.9667C0.733398 23.712 1.0234 24.3858 1.4874 24.9001C1.00437 25.4283 0.735544 26.1176 0.733398 26.8334V34.5667C0.733398 36.1656 2.03453 37.4667 3.6334 37.4667ZM41.3334 34.5667C41.3334 35.0994 40.9003 35.5334 40.3667 35.5334H3.6334C3.0998 35.5334 2.66673 35.0994 2.66673 34.5667V26.8334C2.66673 26.3008 3.0998 25.8667 3.6334 25.8667H40.3667C40.9003 25.8667 41.3334 26.3008 41.3334 26.8334V34.5667ZM2.66673 22.9667V15.2334C2.66673 14.7008 3.0998 14.2667 3.6334 14.2667H40.3667C40.9003 14.2667 41.3334 14.7008 41.3334 15.2334V22.9667C41.3334 23.4994 40.9003 23.9334 40.3667 23.9334H3.6334C3.0998 23.9334 2.66673 23.4994 2.66673 22.9667ZM2.66673 3.6334C2.66673 3.10076 3.0998 2.66673 3.6334 2.66673H40.3667C40.9003 2.66673 41.3334 3.10076 41.3334 3.6334V11.3667C41.3334 11.8994 40.9003 12.3334 40.3667 12.3334H3.6334C3.0998 12.3334 2.66673 11.8994 2.66673 11.3667V3.6334Z" fill="#16B3AC"/>
<path d="M4.6001 6.53333H7.5001V8.46666H4.6001V6.53333ZM9.43343 6.53333H12.3334V8.46666H9.43343V6.53333ZM18.1334 6.53333H39.4001V8.46666H18.1334V6.53333ZM4.6001 18.1333H7.5001V20.0667H4.6001V18.1333ZM9.43343 18.1333H12.3334V20.0667H9.43343V18.1333ZM18.1334 18.1333H39.4001V20.0667H18.1334V18.1333ZM4.6001 29.7333H7.5001V31.6667H4.6001V29.7333ZM9.43343 29.7333H12.3334V31.6667H9.43343V29.7333ZM18.1334 29.7333H39.4001V31.6667H18.1334V29.7333Z" fill="#16B3AC"/>
</svg>
