<svg width="50" height="50" viewBox="0 0 50 50" fill="none" xmlns="http://www.w3.org/2000/svg">
<g clip-path="url(#clip0_72_651)">
<path d="M8.63284 11.6797C12.625 7.73437 17.586 5.375 21.9063 5.375C22.1485 5.375 22.3828 5.39062 22.625 5.40625L19.3282 8.57812C19.211 8.69531 19.1407 8.84375 19.1407 9.00781C19.1407 9.17188 19.1953 9.32812 19.3125 9.44531C19.4297 9.5625 19.586 9.63281 19.75 9.63281C19.9063 9.63281 20.0625 9.57031 20.1719 9.46094L24.4063 5.38281C24.4219 5.36719 24.4219 5.35156 24.4375 5.33594C24.4688 5.29688 24.5 5.25781 24.5235 5.21094C24.5391 5.1875 24.5469 5.15625 24.5547 5.125C24.5625 5.10156 24.5782 5.07812 24.586 5.04688C24.586 5.03125 24.586 5.01562 24.586 4.99219C24.586 4.97656 24.5938 4.96094 24.5938 4.94531C24.5938 4.92188 24.586 4.89844 24.5782 4.875C24.5703 4.83594 24.5703 4.79688 24.5547 4.75781C24.5547 4.71875 24.5391 4.6875 24.5235 4.64844C24.5078 4.60938 24.4844 4.57812 24.461 4.54688C24.4532 4.53125 24.4453 4.51562 24.4297 4.5L20.1953 0.171875C20.0782 0.0625 19.9219 0 19.7578 0C19.5938 0 19.4453 0.0625 19.3282 0.171875C19.086 0.40625 19.086 0.796875 19.3203 1.03906L22.375 4.16406C22.2266 4.15625 22.0782 4.14844 21.9219 4.14844C17.2735 4.14844 11.9766 6.64062 7.76566 10.8047C2.49222 16.0312 -0.0468432 22.7969 0.984407 28.8984C1.03128 29.1953 1.28909 29.4062 1.58597 29.4062L1.68753 29.3984C2.02347 29.3438 2.24222 29.0234 2.18753 28.6953C1.23441 22.9844 3.64066 16.6172 8.63284 11.6797ZM49.211 36.5859C49.1328 36.3281 48.8907 36.1484 48.625 36.1484C48.5625 36.1484 48.5078 36.1562 48.4532 36.1719L44.2188 37.4297C46.7188 32.8828 47.3907 27.2578 46.0235 21.7266C44.461 15.375 40.4297 10.0312 34.961 7.0625C34.875 7.01562 34.7735 6.99219 34.6719 6.99219C34.4453 6.99219 34.2422 7.11719 34.1328 7.3125C34.0547 7.45312 34.0391 7.625 34.086 7.78125C34.1328 7.9375 34.2344 8.07031 34.3828 8.14844C39.5469 10.9531 43.3594 16.0156 44.836 22.0312C46.125 27.2656 45.5 32.5781 43.1485 36.8516L42.1719 32.5078C42.1094 32.2266 41.8672 32.0312 41.5782 32.0312C41.5313 32.0312 41.4844 32.0391 41.4375 32.0469C41.1094 32.1172 40.8985 32.4531 40.9766 32.7812L42.2891 38.6172C42.2969 38.6406 42.3125 38.6641 42.3203 38.6875C42.336 38.7344 42.3516 38.7891 42.3828 38.8281C42.3985 38.8516 42.4297 38.875 42.4532 38.8984C42.4844 38.9297 42.5078 38.9688 42.5469 38.9922C42.5547 39 42.5625 39 42.5703 39L42.5782 39.0078C42.6016 39.0234 42.6328 39.0312 42.6563 39.0391C42.6797 39.0469 42.6953 39.0625 42.7188 39.0625C42.7735 39.0781 42.8282 39.0859 42.8828 39.0859C42.8828 39.0859 42.8828 39.0859 42.8907 39.0859C42.9532 39.0859 43.0078 39.0781 43.0625 39.0625L48.8125 37.3516C48.9688 37.3047 49.1016 37.2031 49.1797 37.0547C49.2422 36.9062 49.2578 36.7422 49.211 36.5859ZM36.7422 44.3984C36.6016 44.3984 36.4688 44.4453 36.3594 44.5391C33 47.2734 28.6016 48.7734 23.9766 48.7734C22.5391 48.7734 21.0703 48.6328 19.625 48.3438C13.8047 47.2031 8.82034 43.8516 5.71878 39.0625L9.95316 40.2734C10.0078 40.2891 10.0625 40.2969 10.1172 40.2969C10.3907 40.2969 10.6328 40.1172 10.711 39.8516C10.8047 39.5234 10.6172 39.1875 10.2891 39.0938L4.56253 37.4609C4.50784 37.4453 4.45316 37.4375 4.39847 37.4375C4.29691 37.4375 4.19534 37.4609 4.10159 37.5156L4.09378 37.5234H4.08597C4.05472 37.5391 4.03128 37.5703 4.00784 37.5938C3.96878 37.6172 3.92972 37.6406 3.90628 37.6797C3.89066 37.7031 3.88284 37.7344 3.86722 37.7578C3.84378 37.8047 3.82034 37.8438 3.80472 37.8906C3.80472 37.8984 3.79691 37.8984 3.79691 37.9062L2.38284 43.7656C2.34378 43.9219 2.36722 44.0859 2.45316 44.2266C2.53909 44.3672 2.67191 44.4609 2.82816 44.5C2.87503 44.5078 2.92191 44.5156 2.97659 44.5156C3.25784 44.5156 3.50784 44.3203 3.57034 44.0469L4.63284 39.6406C7.90628 44.75 13.2032 48.3281 19.3907 49.5391C20.9141 49.8359 22.4532 49.9922 23.9766 49.9922C28.8828 49.9922 33.5547 48.3906 37.1328 45.4844C37.2578 45.3828 37.336 45.2344 37.3594 45.0703C37.375 44.9062 37.3282 44.75 37.2266 44.6172C37.1016 44.4844 36.9219 44.3984 36.7422 44.3984Z" fill="#16B3AC"/>
<path d="M20.4922 28.3359C20.7422 28.3359 20.9375 28.1328 20.9375 27.8906V25.8828C20.9375 25.625 20.7344 25.4297 20.4922 25.4297H19.625C19.4844 24.8828 19.2656 24.3594 18.9766 23.875L19.5937 23.2578C19.6641 23.1875 19.7266 23.0391 19.7266 22.9375C19.7266 22.8359 19.6641 22.6875 19.5937 22.6172L18.1719 21.2031C18 21.0234 17.7188 21.0234 17.5391 21.2031L16.9219 21.8125C16.4453 21.5234 15.9141 21.3125 15.3672 21.1719V20.2969C15.3672 20.0469 15.1641 19.8516 14.9219 19.8516H12.9062C12.6562 19.8516 12.4609 20.0547 12.4609 20.2969V21.1719C11.9141 21.3125 11.3828 21.5312 10.9062 21.8125L10.2891 21.2031C10.1094 21.0234 9.82813 21.0234 9.64844 21.2031L8.23437 22.6172C8.16406 22.6875 8.10156 22.8359 8.10156 22.9375C8.10156 23.0391 8.16406 23.1875 8.23437 23.2578L8.85156 23.875C8.55469 24.3594 8.34375 24.8828 8.20312 25.4297H7.32031C7.07031 25.4297 6.875 25.6328 6.875 25.8828V27.8906C6.875 28.1406 7.07812 28.3359 7.32031 28.3359H8.1875C8.32812 28.8828 8.54688 29.4141 8.83594 29.8984L8.22656 30.5078C8.13281 30.5937 8.08594 30.7031 8.08594 30.8281C8.08594 30.9297 8.14844 31.0781 8.21875 31.1562L9.63281 32.5703C9.78125 32.7109 10.1328 32.7109 10.2734 32.5703L10.8906 31.9531C11.3672 32.25 11.8984 32.4609 12.4453 32.6016V33.4687C12.4453 33.7187 12.6484 33.9219 12.8906 33.9219H14.9062C15.1562 33.9219 15.3516 33.7109 15.3516 33.4687V32.6016C15.8984 32.4609 16.4297 32.2422 16.9062 31.9531L17.5234 32.5703C17.6641 32.7109 18.0156 32.7109 18.1562 32.5703L19.5781 31.1562C19.6641 31.0703 19.7109 30.9531 19.7109 30.8281C19.7109 30.7266 19.6484 30.5781 19.5781 30.5078L18.9609 29.8984C19.2578 29.4141 19.4687 28.8828 19.6094 28.3359H20.4922ZM16.8672 26.8828C16.8672 28.5156 15.5469 29.8359 13.9141 29.8359C12.2812 29.8359 10.9609 28.5156 10.9609 26.8828C10.9609 25.25 12.2812 23.9297 13.9141 23.9297C15.5469 23.9297 16.8672 25.25 16.8672 26.8828ZM32.1797 15.2969C27.5859 15.2969 23.8516 19.0312 23.8516 23.625C23.8516 25.8672 24.7266 27.9688 26.3203 29.5391C26.3203 29.5391 26.3281 29.5391 26.3281 29.5469C26.3281 29.5547 26.3359 29.5547 26.3359 29.5625C26.5156 29.7109 26.6797 29.8672 26.8359 30.0156L26.8594 30.0391C27.75 30.8906 28.2734 31.7031 28.4688 32.5156C27.7734 32.7109 27.2578 33.3438 27.2578 34.1016C27.2578 34.9766 27.9531 35.7031 28.8203 35.75V37.1328C28.8203 37.8672 29.4141 38.4609 30.1484 38.4609H34.1875C34.9219 38.4609 35.5156 37.8672 35.5156 37.1328V35.7422C36.375 35.6953 37.0703 34.9766 37.0703 34.1016C37.0703 33.3438 36.5625 32.7109 35.8672 32.5156C36.0859 31.5625 36.7656 30.625 37.9531 29.5938C37.9688 29.5859 37.9766 29.5781 37.9922 29.5625C38 29.5625 38 29.5547 38 29.5469L38.0078 29.5391C39.5938 27.9609 40.4688 25.8594 40.4688 23.625C40.5 19.0312 36.7656 15.2969 32.1797 15.2969ZM34.1953 37.7031H30.1562C29.8438 37.7031 29.5859 37.4453 29.5859 37.1328V35.75H34.7656V37.1328C34.7656 37.4531 34.5156 37.7031 34.1953 37.7031ZM37.5156 28.9844C37.4922 29 37.4766 29.0234 37.4609 29.0312C36.1016 30.2187 35.3516 31.3047 35.1172 32.4531H29.2422C29.0312 31.4531 28.4297 30.4766 27.4063 29.5C27.3906 29.4922 27.375 29.4766 27.3594 29.4609C27.3516 29.4531 27.3516 29.4531 27.3438 29.4453C27.1953 29.2969 27.0312 29.1484 26.8672 29.0156L26.8594 29L26.8516 28.9922C25.4141 27.5625 24.6172 25.6562 24.6172 23.625C24.6172 19.4531 28.0078 16.0625 32.1797 16.0625C36.3516 16.0625 39.7422 19.4531 39.7422 23.625C39.7422 25.6484 38.9531 27.5547 37.5156 28.9844Z" fill="#16B3AC"/>
<path d="M36.6719 20.0234C36.1641 19.5703 35.5547 19.3828 34.9532 19.4843C34.4844 18.8281 33.6719 18.3984 32.7657 18.3437C31.9063 18.289 31.1329 18.5937 30.6172 19.1406C29.5079 18.7968 28.125 19.1328 27.375 19.9531C26.9141 20.4531 26.75 21.0624 26.9063 21.6953C25.6172 22.3124 25.2422 23.7109 25.5782 24.8046C25.9063 25.8828 26.9063 26.7812 28.5 26.7812C28.8594 26.7812 29.25 26.7265 29.6641 26.6249C29.8125 26.7968 29.9766 26.9531 30.1719 27.0859C30.9532 27.6015 32.1719 27.7265 33.3125 27.0156C33.3282 27.0781 33.3516 27.1484 33.375 27.2109C33.5235 27.539 33.8125 27.789 34.2188 27.9296C34.7344 28.1718 35.1172 28.5937 35.2969 28.8281C35.3907 28.9531 35.5313 29.0234 35.6797 29.039C35.7032 29.039 35.7266 29.039 35.7422 29.039C35.875 29.039 36 28.9921 36.1016 28.914L37.3829 27.8749C37.5 27.7812 37.5782 27.6406 37.5938 27.4843C37.6094 27.3281 37.5625 27.1796 37.4688 27.0624L36.8516 26.3203C37.211 26.1328 37.5079 25.8281 37.6954 25.4296C38.0313 24.7031 37.9532 23.8046 37.5391 23.0624C37.5704 22.9765 37.6094 22.9062 37.6329 22.8124C37.8282 21.8593 37.4375 20.7031 36.6719 20.0234ZM36.9922 25.1171C36.875 25.3749 36.625 25.6953 36.1407 25.7499C36 25.7656 35.8829 25.8593 35.8282 25.9843C35.7735 26.1171 35.7969 26.2656 35.8907 26.3671L36.75 27.3984L35.7735 28.1953C35.5157 27.8984 35.0938 27.4843 34.5157 27.2187C34.2813 27.1328 34.1407 27.0234 34.0782 26.8906C34.0157 26.7421 34.0391 26.539 34.1485 26.2656C34.2188 26.0937 34.1563 25.8984 34 25.8046C33.8438 25.7031 33.6407 25.7265 33.5157 25.8593C32.5 26.9218 31.3125 26.9218 30.5938 26.4453C30.0079 26.0624 29.5625 25.2265 30.0625 24.0468C30.1485 23.8515 30.0547 23.6328 29.8594 23.5468C29.6641 23.4609 29.4454 23.5546 29.3594 23.7499C29.0313 24.5234 29.0079 25.289 29.25 25.9296C27.5 26.2578 26.5625 25.4453 26.3047 24.5859C26.0469 23.7343 26.375 22.6406 27.5 22.2734C27.6016 22.2421 27.6875 22.164 27.7266 22.0703C27.7735 21.9687 27.7735 21.8593 27.7266 21.7656C27.5157 21.2812 27.586 20.8437 27.9297 20.4687C28.4844 19.8671 29.6016 19.6015 30.4297 19.8749C30.8829 20.0234 31.4454 20.4062 31.5391 21.3515C31.5625 21.5624 31.7422 21.7109 31.9532 21.6953C32.1641 21.6718 32.3125 21.4921 32.2969 21.2812C32.2188 20.4999 31.8829 19.8906 31.3282 19.4921C31.6797 19.2187 32.1719 19.0781 32.711 19.1093C33.4688 19.1562 34.1329 19.539 34.4375 20.1093C34.5235 20.2734 34.7188 20.3515 34.8985 20.289C35.4532 20.1015 35.8907 20.3515 36.1563 20.5937C36.7188 21.0937 37.0157 21.9609 36.8672 22.6562C36.75 23.1953 36.3672 23.5859 35.7735 23.7734C35.5704 23.8359 35.461 24.0468 35.5235 24.2499C35.5704 24.414 35.7266 24.5156 35.8907 24.5156C35.9297 24.5156 35.9688 24.5078 36 24.4999C36.4219 24.3671 36.7735 24.1562 37.0469 23.8749C37.1719 24.2968 37.1641 24.7499 36.9922 25.1171Z" fill="#16B3AC"/>
<path d="M28.8438 21.3671C28.6328 21.3828 28.4844 21.5703 28.5 21.7734C28.5157 21.9843 28.7032 22.1328 28.9063 22.1249C29.0235 22.1171 30.0547 22.0781 30.2422 23.3984C30.2657 23.5859 30.4297 23.7265 30.6172 23.7265C30.6328 23.7265 30.6563 23.7265 30.6719 23.7187C30.8828 23.6874 31.0235 23.4921 30.9922 23.289C30.7657 21.6406 29.4922 21.3124 28.8438 21.3671ZM32.4532 22.5937C32.2422 22.6015 32.086 22.7812 32.0938 22.9921C32.1016 23.2031 32.3047 23.3593 32.4922 23.3515C32.6641 23.3437 33.1641 23.3828 33.4297 23.6484C33.5782 23.7968 33.6407 23.9999 33.6328 24.2656C33.625 24.4765 33.7891 24.6562 34 24.664C34.0078 24.664 34.0078 24.664 34.0157 24.664C34.2188 24.664 34.3907 24.4999 34.3985 24.2968C34.4219 23.8124 34.2735 23.3984 33.9688 23.1015C33.4063 22.5624 32.5469 22.5937 32.4532 22.5937Z" fill="#16B3AC"/>
</g>
<defs>
<clipPath id="clip0_72_651">
<rect width="50" height="50" fill="white"/>
</clipPath>
</defs>
</svg>
