<svg width="58" height="72" viewBox="0 0 58 72" fill="none" xmlns="http://www.w3.org/2000/svg">
<path fill-rule="evenodd" clip-rule="evenodd" d="M31.9272 17.2719C31.9263 16.8345 31.6091 16.4619 31.1759 16.3863C29.7359 16.1379 28.2641 16.1379 26.8241 16.3863C26.3909 16.4619 26.0737 16.8345 26.0728 17.2719L26.0683 19.4283C25.4928 19.6065 24.9337 19.836 24.3999 20.115L22.8611 18.5931C22.5493 18.2844 22.0599 18.243 21.7002 18.4941C20.5048 19.3293 19.4635 20.3634 18.6225 21.5505C18.3697 21.9078 18.4114 22.3938 18.7222 22.7034L20.2547 24.2316C19.9737 24.7617 19.7417 25.317 19.5632 25.8894C19.5632 25.8885 17.3918 25.893 17.3918 25.893C16.9514 25.8939 16.5762 26.2089 16.5001 26.6391C16.25 28.0692 16.25 29.5308 16.5001 30.9609C16.5762 31.3911 16.9514 31.7061 17.3918 31.707L19.5632 31.7115C19.7427 32.283 19.9737 32.8383 20.2547 33.3684L18.7222 34.8966C18.4114 35.2062 18.3697 35.6922 18.6225 36.0495C19.4635 37.2366 20.5048 38.2707 21.7002 39.1059C22.0599 39.357 22.5493 39.3156 22.8611 39.0069L24.3999 37.485C24.9337 37.764 25.4928 37.9944 26.0692 38.1716C26.0683 38.1716 26.0728 40.3281 26.0728 40.3281C26.0737 40.7654 26.3909 41.1381 26.8241 41.2137C28.2641 41.4621 29.7359 41.4621 31.1759 41.2137C31.6091 41.1381 31.9263 40.7654 31.9272 40.3281L31.9317 38.1716C32.5072 37.9935 33.0663 37.764 33.6001 37.485L35.1389 39.0069C35.4507 39.3156 35.9401 39.357 36.2998 39.1059C37.4952 38.2707 38.5365 37.2366 39.3775 36.0495C39.6303 35.6922 39.5886 35.2062 39.2778 34.8966L37.7453 33.3684C38.0263 32.8383 38.2582 32.283 38.4368 31.7106C38.4368 31.7115 40.6082 31.707 40.6082 31.707C41.0486 31.7061 41.4238 31.3911 41.4999 30.9609C41.75 29.5308 41.75 28.0692 41.4999 26.6391C41.4238 26.2089 41.0486 25.8939 40.6082 25.893L38.4368 25.8885C38.2573 25.3169 38.0263 24.7617 37.7453 24.2316L39.2778 22.7034C39.5886 22.3938 39.6303 21.9078 39.3775 21.5505C38.5365 20.3634 37.4952 19.3293 36.2998 18.4941C35.9401 18.243 35.4507 18.2844 35.1389 18.5931L33.6001 20.115C33.0663 19.836 32.5072 19.6056 31.9308 19.4283C31.9317 19.4283 31.9272 17.2719 31.9272 17.2719ZM30.1165 18.0567L30.1201 20.1186C30.121 20.5371 30.4119 20.8989 30.8216 20.9934C31.6879 21.1932 32.5153 21.5334 33.2703 22.0005C33.6273 22.2219 34.0904 22.1697 34.3895 21.8745L35.8603 20.42C36.4385 20.8871 36.9678 21.4128 37.4381 21.987L35.9736 23.4476C35.6763 23.7447 35.6238 24.2046 35.8467 24.5592C36.3171 25.3089 36.6596 26.1306 36.8608 26.991C36.956 27.3978 37.3203 27.6867 37.7417 27.6876L39.8179 27.6912C39.894 28.4283 39.894 29.1716 39.8179 29.9087L37.7417 29.9124C37.3203 29.9133 36.956 30.2022 36.8608 30.609C36.6596 31.4693 36.3171 32.2911 35.8467 33.0408C35.6238 33.3954 35.6763 33.8553 35.9736 34.1523L37.4381 35.613C36.9678 36.1872 36.4385 36.7128 35.8603 37.1799L34.3895 35.7255C34.0904 35.4303 33.6273 35.3781 33.2703 35.5995C32.5153 36.0666 31.6879 36.4068 30.8216 36.6066C30.4119 36.7011 30.121 37.0629 30.1201 37.4814L30.1165 39.5433C29.3743 39.6189 28.6257 39.6189 27.8835 39.5433L27.8799 37.4814C27.879 37.0629 27.5881 36.7011 27.1784 36.6066C26.3121 36.4068 25.4847 36.0666 24.7297 35.5995C24.3727 35.3781 23.9096 35.4303 23.6105 35.7255L22.1397 37.1799C21.5615 36.7128 21.0322 36.1872 20.5619 35.613L22.0264 34.1523C22.3237 33.8553 22.3762 33.3954 22.1533 33.0408C21.6829 32.2911 21.3404 31.4693 21.1392 30.609C21.044 30.2022 20.6797 29.9133 20.2583 29.9124L18.1821 29.9087C18.106 29.1716 18.106 28.4283 18.1821 27.6912L20.2583 27.6876C20.6797 27.6867 21.044 27.3978 21.1392 26.991C21.3404 26.1306 21.6829 25.3089 22.1533 24.5592C22.3762 24.2046 22.3237 23.7447 22.0264 23.4476L20.5619 21.987C21.0322 21.4128 21.5615 20.8871 22.1397 20.42L23.6105 21.8745C23.9096 22.1697 24.3727 22.2219 24.7297 22.0005C25.4847 21.5334 26.3121 21.1932 27.1784 20.9934C27.5881 20.8989 27.879 20.5371 27.8799 20.1186L27.8835 18.0567C28.6257 17.9811 29.3743 17.9811 30.1165 18.0567Z" fill="#16B3AC"/>
<path fill-rule="evenodd" clip-rule="evenodd" d="M28.9999 24.3009C26.4996 24.3009 24.4696 26.3169 24.4696 28.8C24.4696 31.2831 26.4996 33.2991 28.9999 33.2991C31.5003 33.2991 33.5303 31.2831 33.5303 28.8C33.5303 26.3169 31.5003 24.3009 28.9999 24.3009ZM28.9999 26.1009C30.4998 26.1009 31.7178 27.3105 31.7178 28.8C31.7178 30.2895 30.4998 31.4991 28.9999 31.4991C27.5001 31.4991 26.2821 30.2895 26.2821 28.8C26.2821 27.3105 27.5001 26.1009 28.9999 26.1009Z" fill="#16B3AC"/>
<path fill-rule="evenodd" clip-rule="evenodd" d="M8.90753 16.2H15.1163L17.1662 17.6544C14.5852 20.3553 12.9313 23.9391 12.712 27.9H8.00128C7.62791 26.8515 6.62016 26.1 5.4375 26.1C3.93675 26.1 2.71875 27.3096 2.71875 28.8C2.71875 30.2904 3.93675 31.5 5.4375 31.5C6.62016 31.5 7.62791 30.7485 8.00128 29.7H12.712C12.9313 33.6609 14.5852 37.2447 17.1662 39.9456L15.1163 41.4H8.90753C8.53416 40.3515 7.52641 39.6 6.34375 39.6C4.843 39.6 3.625 40.8096 3.625 42.3C3.625 43.7904 4.843 45 6.34375 45C7.52641 45 8.53416 44.2485 8.90753 43.2H15.4062C15.5948 43.2 15.7796 43.1415 15.9328 43.0326L18.5111 41.2038C21.3476 43.5726 25.0071 45 29 45C32.9929 45 36.6524 43.5726 39.4889 41.2038L42.0672 43.0326C42.2204 43.1415 42.4053 43.2 42.5938 43.2H49.0925C49.4658 44.2485 50.4736 45 51.6562 45C53.157 45 54.375 43.7904 54.375 42.3C54.375 40.8096 53.157 39.6 51.6562 39.6C50.4736 39.6 49.4658 40.3515 49.0925 41.4H42.8838L40.8338 39.9456C43.4148 37.2447 45.0687 33.6609 45.288 29.7H49.9987C50.3721 30.7485 51.3798 31.5 52.5625 31.5C54.0633 31.5 55.2812 30.2904 55.2812 28.8C55.2812 27.3096 54.0633 26.1 52.5625 26.1C51.3798 26.1 50.3721 26.8515 49.9987 27.9H45.288C45.0687 23.9391 43.4148 20.3553 40.8338 17.6544L42.8838 16.2H49.0925C49.4658 17.2485 50.4736 18 51.6562 18C53.157 18 54.375 16.7904 54.375 15.3C54.375 13.8096 53.157 12.6 51.6562 12.6C50.4736 12.6 49.4658 13.3515 49.0925 14.4H42.5938C42.4053 14.4 42.2204 14.4585 42.0672 14.5674L39.4889 16.3962C36.6524 14.0274 32.9929 12.6 29 12.6C25.0071 12.6 21.3476 14.0274 18.5111 16.3962L15.9328 14.5674C15.7796 14.4585 15.5948 14.4 15.4062 14.4H8.90753C8.53416 13.3515 7.52641 12.6 6.34375 12.6C4.843 12.6 3.625 13.8096 3.625 15.3C3.625 16.7904 4.843 18 6.34375 18C7.52641 18 8.53416 17.2485 8.90753 16.2ZM6.34375 43.2C5.8435 43.2 5.4375 42.7968 5.4375 42.3C5.4375 41.8032 5.8435 41.4 6.34375 41.4C6.844 41.4 7.25 41.8032 7.25 42.3C7.25 42.7968 6.844 43.2 6.34375 43.2ZM38.7159 18.1143C36.1449 15.8067 32.7365 14.4 29 14.4C25.2635 14.4 21.8551 15.8067 19.2841 18.1143C19.2261 18.1863 19.159 18.2466 19.0856 18.2961C16.2645 20.9232 14.5 24.6582 14.5 28.8C14.5 32.9418 16.2645 36.6768 19.0856 39.3039C19.159 39.3534 19.2261 39.4137 19.2841 39.4857C21.8551 41.7933 25.2635 43.2 29 43.2C32.7365 43.2 36.1449 41.7933 38.7159 39.4857C38.7739 39.4137 38.841 39.3534 38.9144 39.3039C41.7355 36.6768 43.5 32.9418 43.5 28.8C43.5 24.6582 41.7355 20.9232 38.9144 18.2961C38.841 18.2466 38.7739 18.1863 38.7159 18.1143ZM51.6562 43.2C51.156 43.2 50.75 42.7968 50.75 42.3C50.75 41.8032 51.156 41.4 51.6562 41.4C52.1565 41.4 52.5625 41.8032 52.5625 42.3C52.5625 42.7968 52.1565 43.2 51.6562 43.2ZM52.5625 27.9C53.0628 27.9 53.4688 28.3032 53.4688 28.8C53.4688 29.2968 53.0628 29.7 52.5625 29.7C52.0622 29.7 51.6562 29.2968 51.6562 28.8C51.6562 28.3032 52.0622 27.9 52.5625 27.9ZM5.4375 27.9C5.93775 27.9 6.34375 28.3032 6.34375 28.8C6.34375 29.2968 5.93775 29.7 5.4375 29.7C4.93725 29.7 4.53125 29.2968 4.53125 28.8C4.53125 28.3032 4.93725 27.9 5.4375 27.9ZM6.34375 14.4C6.844 14.4 7.25 14.8032 7.25 15.3C7.25 15.7968 6.844 16.2 6.34375 16.2C5.8435 16.2 5.4375 15.7968 5.4375 15.3C5.4375 14.8032 5.8435 14.4 6.34375 14.4ZM51.6562 14.4C52.1565 14.4 52.5625 14.8032 52.5625 15.3C52.5625 15.7968 52.1565 16.2 51.6562 16.2C51.156 16.2 50.75 15.7968 50.75 15.3C50.75 14.8032 51.156 14.4 51.6562 14.4Z" fill="#16B3AC"/>
</svg>
