<svg width="49" height="49" viewBox="0 0 49 49" fill="none" xmlns="http://www.w3.org/2000/svg">
<g clip-path="url(#clip0_72_610)">
<path d="M48.4896 12.8625H37.2604V0.510376H11.7396V12.8625H0.510437V42.7729H6.8396V48.4895H42.1604V42.7729H48.4896V12.8625ZM13.7813 2.55204H35.2188V40.7312H30.9313V32.5645H18.0688V40.7312H13.7813V2.55204ZM28.8896 40.7312H20.0084V34.6062H28.8896V40.7312ZM2.5521 40.7312V14.9041H11.7396V40.7312H2.5521ZM40.1188 46.4479H8.88127V42.7729H40.2209V46.4479H40.1188ZM46.4479 40.7312H37.2604V14.9041H46.4479V40.7312Z" fill="#16B3AC"/>
<path d="M23.4792 14.9042H25.5208V11.9437H28.4813V9.90207H25.5208V6.94165H23.4792V9.90207H20.5188V11.9437H23.4792V14.9042ZM6.125 18.8854H8.16667V22.05H6.125V18.8854ZM6.125 26.2354H8.16667V29.4H6.125V26.2354ZM6.125 33.5854H8.16667V36.75H6.125V33.5854ZM40.8333 18.8854H42.875V22.05H40.8333V18.8854ZM40.8333 26.2354H42.875V29.4H40.8333V26.2354ZM40.8333 33.5854H42.875V36.75H40.8333V33.5854ZM18.0688 18.8854H20.1104V22.05H18.0688V18.8854ZM18.0688 26.2354H20.1104V29.4H18.0688V26.2354ZM23.4792 18.8854H25.5208V22.05H23.4792V18.8854ZM23.4792 26.2354H25.5208V29.4H23.4792V26.2354ZM28.8896 18.8854H30.9312V22.05H28.8896V18.8854ZM28.8896 26.2354H30.9312V29.4H28.8896V26.2354Z" fill="#16B3AC"/>
</g>
<defs>
<clipPath id="clip0_72_610">
<rect width="49" height="49" fill="white"/>
</clipPath>
</defs>
</svg>
