<svg width="46" height="46" viewBox="0 0 46 46" fill="none" xmlns="http://www.w3.org/2000/svg">
<path d="M44.25 45.5H1.75C1.41848 45.5 1.10054 45.3683 0.866117 45.1339C0.631696 44.8995 0.5 44.5815 0.5 44.25V1.75C0.5 1.41848 0.631696 1.10054 0.866117 0.866117C1.10054 0.631696 1.41848 0.5 1.75 0.5H44.25C44.5815 0.5 44.8995 0.631696 45.1339 0.866117C45.3683 1.10054 45.5 1.41848 45.5 1.75V44.25C45.5 44.5815 45.3683 44.8995 45.1339 45.1339C44.8995 45.3683 44.5815 45.5 44.25 45.5ZM3 43H43V3H3V43Z" fill="#16B3AC"/>
<path d="M6.75 8C7.44036 8 8 7.44036 8 6.75C8 6.05964 7.44036 5.5 6.75 5.5C6.05964 5.5 5.5 6.05964 5.5 6.75C5.5 7.44036 6.05964 8 6.75 8Z" fill="#16B3AC"/>
<path d="M11.75 8C12.4404 8 13 7.44036 13 6.75C13 6.05964 12.4404 5.5 11.75 5.5C11.0596 5.5 10.5 6.05964 10.5 6.75C10.5 7.44036 11.0596 8 11.75 8Z" fill="#16B3AC"/>
<path d="M16.75 8C17.4404 8 18 7.44036 18 6.75C18 6.05964 17.4404 5.5 16.75 5.5C16.0596 5.5 15.5 6.05964 15.5 6.75C15.5 7.44036 16.0596 8 16.75 8Z" fill="#16B3AC"/>
<path d="M19.25 13H1.75C1.41848 13 1.10054 12.8683 0.866117 12.6339C0.631696 12.3995 0.5 12.0815 0.5 11.75C0.5 11.4185 0.631696 11.1006 0.866117 10.8661C1.10054 10.6317 1.41848 10.5 1.75 10.5H18.7375L23.3625 5.86252C23.4793 5.74667 23.6178 5.65501 23.7701 5.59281C23.9224 5.5306 24.0855 5.49907 24.25 5.50002H44.25C44.5815 5.50002 44.8995 5.63172 45.1339 5.86614C45.3683 6.10056 45.5 6.4185 45.5 6.75002C45.5 7.08154 45.3683 7.39948 45.1339 7.6339C44.8995 7.86832 44.5815 8.00002 44.25 8.00002H24.7625L20.1375 12.6375C20.0207 12.7534 19.8822 12.845 19.7299 12.9072C19.5776 12.9694 19.4145 13.001 19.25 13ZM13.7375 33C13.573 33.001 13.4099 32.9694 13.2576 32.9072C13.1053 32.845 12.9668 32.7534 12.85 32.6375L7.85 27.6375C7.73284 27.5213 7.63985 27.3831 7.57639 27.2307C7.51293 27.0784 7.48025 26.915 7.48025 26.75C7.48025 26.585 7.51293 26.4216 7.57639 26.2693C7.63985 26.117 7.73284 25.9787 7.85 25.8625L12.85 20.8625C13.0842 20.6297 13.401 20.499 13.7312 20.499C14.0615 20.499 14.3783 20.6297 14.6125 20.8625C14.7297 20.9787 14.8227 21.117 14.8861 21.2693C14.9496 21.4216 14.9822 21.585 14.9822 21.75C14.9822 21.915 14.9496 22.0784 14.8861 22.2307C14.8227 22.3831 14.7297 22.5213 14.6125 22.6375L10.5 26.75L14.6125 30.8625C14.788 31.0366 14.908 31.2588 14.9572 31.5011C15.0065 31.7434 14.9827 31.9948 14.8891 32.2236C14.7954 32.4524 14.636 32.6483 14.4311 32.7865C14.2261 32.9247 13.9847 32.999 13.7375 33ZM32.4875 33C32.2392 33.0015 31.9961 32.9289 31.7892 32.7917C31.5823 32.6544 31.421 32.4587 31.3258 32.2294C31.2306 32.0001 31.2058 31.7476 31.2547 31.5042C31.3035 31.2607 31.4237 31.0374 31.6 30.8625L35.7125 26.75L31.6 22.6375C31.4828 22.5213 31.3898 22.3831 31.3264 22.2307C31.2629 22.0784 31.2303 21.915 31.2303 21.75C31.2303 21.585 31.2629 21.4216 31.3264 21.2693C31.3898 21.117 31.4828 20.9787 31.6 20.8625C31.8342 20.6297 32.151 20.499 32.4812 20.499C32.8115 20.499 33.1283 20.6297 33.3625 20.8625L38.3625 25.8625C38.4797 25.9787 38.5727 26.117 38.6361 26.2693C38.6996 26.4216 38.7323 26.585 38.7323 26.75C38.7323 26.915 38.6996 27.0784 38.6361 27.2307C38.5727 27.3831 38.4797 27.5213 38.3625 27.6375L33.3625 32.6375C33.1297 32.8685 32.8154 32.9986 32.4875 33ZM20.5 33C20.3039 33.0024 20.1104 32.9551 19.9375 32.8625C19.6431 32.7127 19.42 32.4524 19.3169 32.1385C19.2139 31.8246 19.2392 31.4827 19.3875 31.1875L24.3875 21.1875C24.4536 21.0288 24.5517 20.8855 24.6757 20.7664C24.7996 20.6474 24.9469 20.5552 25.1081 20.4956C25.2693 20.436 25.4411 20.4103 25.6127 20.4201C25.7843 20.4299 25.9521 20.475 26.1055 20.5525C26.2589 20.6301 26.3946 20.7385 26.5042 20.8709C26.6139 21.0033 26.695 21.1568 26.7426 21.322C26.7902 21.4872 26.8032 21.6604 26.7808 21.8308C26.7584 22.0013 26.7011 22.1652 26.6125 22.3125L21.6125 32.3125C21.5086 32.5187 21.3497 32.692 21.1533 32.8134C20.957 32.9347 20.7308 32.9993 20.5 33Z" fill="#16B3AC"/>
</svg>
