<svg width="45" height="45" viewBox="0 0 45 45" fill="none" xmlns="http://www.w3.org/2000/svg">
<path d="M33.4379 34.8427C33.2532 34.8429 33.0703 34.8066 32.8997 34.7359C32.7291 34.6652 32.5741 34.5614 32.4437 34.4307L24.3184 26.3068C24.1878 26.1762 24.0842 26.0212 24.0136 25.8506C23.9429 25.68 23.9066 25.4972 23.9066 25.3125C23.9066 25.1279 23.9429 24.9451 24.0136 24.7745C24.0842 24.6039 24.1878 24.4489 24.3184 24.3183C24.4489 24.1878 24.6039 24.0842 24.7745 24.0135C24.9451 23.9429 25.128 23.9065 25.3126 23.9065C25.4972 23.9065 25.6801 23.9429 25.8507 24.0135C26.0213 24.0842 26.1763 24.1878 26.3068 24.3183L34.4321 32.4422C34.6294 32.6386 34.7639 32.8892 34.8185 33.1622C34.8732 33.4352 34.8455 33.7182 34.7389 33.9754C34.6324 34.2326 34.4519 34.4524 34.2202 34.6068C33.9886 34.7612 33.7163 34.8433 33.4379 34.8427ZM19.6876 21.0938C19.5029 21.094 19.32 21.0577 19.1494 20.987C18.9788 20.9163 18.8238 20.8125 18.6934 20.6818L10.5681 12.5578C10.4375 12.4273 10.3339 12.2723 10.2633 12.1017C10.1926 11.9311 10.1563 11.7483 10.1562 11.5636C10.1562 11.379 10.1926 11.1962 10.2633 11.0256C10.3339 10.855 10.4375 10.7 10.5681 10.5694C10.6986 10.4388 10.8536 10.3353 11.0242 10.2646C11.1948 10.194 11.3776 10.1576 11.5623 10.1576C11.7469 10.1576 11.9298 10.194 12.1004 10.2646C12.2709 10.3353 12.4259 10.4388 12.5565 10.5694L20.6818 18.6933C20.8791 18.8897 21.0136 19.1403 21.0682 19.4133C21.1229 19.6863 21.0952 19.9693 20.9886 20.2265C20.8821 20.4837 20.7016 20.7035 20.4699 20.8579C20.2383 21.0123 19.966 21.0944 19.6876 21.0938Z" fill="#16B3AC"/>
<path d="M7.18738 14.7783C6.19028 14.7802 5.20265 14.585 4.28124 14.2039C3.35983 13.8229 2.52282 13.2634 1.81831 12.5578C1.55463 12.2942 1.40649 11.9365 1.40649 11.5636C1.40649 11.379 1.44286 11.1961 1.51352 11.0256C1.58418 10.855 1.68775 10.7 1.81831 10.5694C1.94888 10.4388 2.10388 10.3353 2.27446 10.2646C2.44505 10.194 2.62789 10.1576 2.81253 10.1576C3.18544 10.1576 3.54307 10.3057 3.80675 10.5694C4.70448 11.4639 5.9201 11.9661 7.18738 11.9661C8.45465 11.9661 9.67027 11.4639 10.568 10.5694C11.4708 9.66519 11.9686 8.46566 11.9686 7.18738C11.9686 5.90909 11.4708 4.70956 10.568 3.80675C10.4374 3.67619 10.3339 3.52119 10.2632 3.3506C10.1925 3.18001 10.1562 2.99718 10.1562 2.81253C10.1562 2.62789 10.1925 2.44505 10.2632 2.27446C10.3339 2.10388 10.4374 1.94888 10.568 1.81831C10.6986 1.68775 10.8536 1.58418 11.0242 1.51352C11.1947 1.44286 11.3776 1.40649 11.5622 1.40649C11.7469 1.40649 11.9297 1.44286 12.1003 1.51352C12.2709 1.58418 12.4259 1.68775 12.5564 1.81831C13.2639 2.52163 13.8249 3.35833 14.2067 4.27994C14.5886 5.20156 14.7838 6.18978 14.7811 7.18738C14.7837 8.18495 14.5884 9.17312 14.2065 10.0947C13.8246 11.0163 13.2638 11.853 12.5564 12.5564C11.852 13.2622 11.015 13.8219 10.0936 14.2032C9.17223 14.5845 8.18456 14.7799 7.18738 14.7783ZM33.4378 43.5938C33.2532 43.594 33.0702 43.5577 32.8996 43.487C32.729 43.4163 32.574 43.3125 32.4436 43.1818C31.7361 42.4784 31.1752 41.6417 30.7933 40.7201C30.4115 39.7985 30.2162 38.8103 30.2189 37.8127C30.2189 35.7849 31.0093 33.878 32.4436 32.4436C33.8688 31.0219 35.7996 30.2235 37.8127 30.2235C39.8257 30.2235 41.7566 31.0219 43.1818 32.4436C43.3123 32.5742 43.4159 32.7292 43.4865 32.8998C43.5572 33.0704 43.5936 33.2532 43.5936 33.4378C43.5936 33.6225 43.5572 33.8053 43.4865 33.9759C43.4159 34.1465 43.3123 34.3015 43.1818 34.4321C43.0512 34.5626 42.8962 34.6662 42.7256 34.7369C42.555 34.8075 42.3722 34.8439 42.1875 34.8439C42.0029 34.8439 41.8201 34.8075 41.6495 34.7369C41.4789 34.6662 41.3239 34.5626 41.1933 34.4321C40.2956 33.5376 39.08 33.0354 37.8127 33.0354C36.5454 33.0354 35.3298 33.5376 34.4321 34.4321C33.5293 35.3363 33.0314 36.5358 33.0314 37.8127C33.0314 39.0896 33.5293 40.2919 34.4321 41.1933C34.6294 41.3897 34.7639 41.6403 34.8185 41.9133C34.8731 42.1863 34.8454 42.4693 34.7389 42.7265C34.6323 42.9837 34.4518 43.2035 34.2202 43.3579C33.9885 43.5123 33.7162 43.5944 33.4378 43.5938ZM24.1214 27.0324C23.7529 27.0329 23.3879 26.9606 23.0474 26.8197C22.7069 26.6787 22.3976 26.4719 22.1372 26.2111L18.7903 22.8628C18.265 22.3361 17.9699 21.6226 17.9699 20.8786C17.9699 20.1347 18.265 19.4211 18.7903 18.8944L35.4558 2.22894C36.5133 1.16863 38.3639 1.16722 39.4243 2.23034L42.7711 5.57581C43.2965 6.10252 43.5915 6.8161 43.5915 7.56003C43.5915 8.30397 43.2965 9.01754 42.7711 9.54425L26.1057 26.2111C25.5586 26.7568 24.84 27.0324 24.1214 27.0324ZM24.1257 24.2227C24.1271 24.2227 24.1271 24.2227 24.1257 24.2227V24.2227ZM37.4358 4.21738L20.7788 20.8828L24.1228 24.2185L40.7827 7.55581L37.4358 4.21738Z" fill="#16B3AC"/>
<path d="M2.81249 43.5937C2.5341 43.5944 2.26181 43.5122 2.03017 43.3578C1.79853 43.2034 1.61799 42.9837 1.51146 42.7265C1.40494 42.4693 1.37723 42.1862 1.43185 41.9132C1.48648 41.6403 1.62097 41.3897 1.81827 41.1933L20.4637 22.5478C20.5943 22.4172 20.7493 22.3137 20.9199 22.243C21.0905 22.1724 21.2733 22.136 21.458 22.136C21.6426 22.136 21.8254 22.1724 21.996 22.243C22.1666 22.3137 22.3216 22.4172 22.4522 22.5478C22.5827 22.6784 22.6863 22.8334 22.757 23.004C22.8276 23.1745 22.864 23.3574 22.864 23.542C22.864 23.7267 22.8276 23.9095 22.757 24.0801C22.6863 24.2507 22.5827 24.4057 22.4522 24.5362L3.80671 43.1817C3.67629 43.3125 3.52133 43.4162 3.35071 43.4869C3.18009 43.5576 2.99718 43.5939 2.81249 43.5937Z" fill="#16B3AC"/>
</svg>
