<svg width="16" height="18" viewBox="0 0 16 18" fill="none" xmlns="http://www.w3.org/2000/svg">
<path d="M9.95988 4.92002H12.3466L11.8199 5.52002C11.6957 5.66054 11.626 5.85063 11.626 6.04877C11.626 6.24691 11.6957 6.437 11.8199 6.57752C11.9448 6.71721 12.1138 6.79562 12.2899 6.79562C12.466 6.79562 12.635 6.71721 12.7599 6.57752L14.4266 4.70252C14.5507 4.562 14.6204 4.37191 14.6204 4.17377C14.6204 3.97563 14.5507 3.78555 14.4266 3.64502L12.7599 1.77002C12.6323 1.64715 12.4683 1.58295 12.3005 1.59024C12.1327 1.59753 11.9736 1.67578 11.8548 1.80935C11.7361 1.94292 11.6666 2.12198 11.6601 2.31073C11.6536 2.49949 11.7107 2.68405 11.8199 2.82752L12.3466 3.42002H9.95988C9.78307 3.42002 9.6135 3.49904 9.48848 3.63969C9.36346 3.78035 9.29322 3.97111 9.29322 4.17002C9.29322 4.36894 9.36346 4.5597 9.48848 4.70035C9.6135 4.84101 9.78307 4.92002 9.95988 4.92002ZM12.9599 9.75002C12.8132 9.75002 12.6599 9.69752 12.5132 9.66002C12.2162 9.58639 11.9243 9.48864 11.6399 9.36752C11.3306 9.24095 10.9907 9.24752 10.6854 9.38598C10.3802 9.52444 10.1313 9.785 9.98655 10.1175L9.83988 10.455C9.19055 10.0487 8.59387 9.54395 8.06655 8.95502C7.54306 8.36179 7.09443 7.69052 6.73322 6.96002L7.01322 6.75002C7.30879 6.58721 7.54041 6.30717 7.66348 5.96379C7.78656 5.62041 7.7924 5.23796 7.67988 4.89002C7.57403 4.56934 7.48718 4.24112 7.41988 3.90752C7.38655 3.74252 7.35988 3.57002 7.33988 3.39752C7.25893 2.86924 7.01297 2.39083 6.6463 2.04845C6.27963 1.70608 5.81635 1.52223 5.33988 1.53002H3.33988C3.05257 1.52699 2.76805 1.59363 2.50569 1.72542C2.24333 1.85721 2.00929 2.05105 1.8195 2.29373C1.62972 2.53642 1.48864 2.82227 1.40588 3.13181C1.32311 3.44135 1.3006 3.76732 1.33988 4.08752C1.69504 7.22956 2.97057 10.1489 4.96499 12.3845C6.9594 14.6201 9.55902 16.0444 12.3532 16.4325H12.6066C13.0982 16.4333 13.5728 16.2304 13.9399 15.8625C14.1508 15.6503 14.3193 15.3902 14.4342 15.0993C14.5491 14.8084 14.6079 14.4934 14.6066 14.175V11.925C14.5984 11.4041 14.4298 10.9024 14.1294 10.5058C13.8291 10.1091 13.4158 9.84199 12.9599 9.75002ZM13.2932 14.25C13.2931 14.3565 13.2728 14.4618 13.2337 14.5587C13.1947 14.6557 13.1377 14.7422 13.0666 14.8125C12.9921 14.8849 12.905 14.9389 12.8108 14.9712C12.7167 15.0035 12.6176 15.0133 12.5199 15C10.0232 14.6399 7.70404 13.3549 5.92836 11.3477C4.15268 9.34059 3.02149 6.72553 2.71322 3.91502C2.70261 3.80516 2.71191 3.69402 2.74055 3.58832C2.7692 3.48261 2.8166 3.38454 2.87988 3.30002C2.94236 3.22002 3.01926 3.1559 3.10547 3.11194C3.19168 3.06797 3.28523 3.04516 3.37988 3.04502H5.37988C5.53491 3.04114 5.6863 3.09818 5.80798 3.20633C5.92966 3.31447 6.01402 3.46695 6.04655 3.63752C6.07322 3.84252 6.10655 4.04502 6.14655 4.24502C6.22356 4.64038 6.32606 5.02891 6.45322 5.40752L5.51988 5.89502C5.44008 5.93621 5.3683 5.99473 5.30866 6.06722C5.24901 6.13971 5.20268 6.22473 5.17233 6.31742C5.14198 6.4101 5.1282 6.50862 5.13178 6.60731C5.13537 6.70601 5.15624 6.80293 5.19322 6.89252C6.15268 9.20459 7.80471 11.0631 9.85988 12.1425C10.0222 12.2175 10.2042 12.2175 10.3666 12.1425C10.4497 12.1091 10.5261 12.0574 10.5913 11.9904C10.6566 11.9235 10.7093 11.8426 10.7466 11.7525L11.1599 10.7025C11.5045 10.8412 11.8563 10.9564 12.2132 11.0475C12.391 11.0925 12.571 11.13 12.7532 11.16C12.9048 11.1966 13.0404 11.2915 13.1365 11.4284C13.2326 11.5653 13.2833 11.7356 13.2799 11.91L13.2932 14.25Z" fill="#F1F5FD"/>
</svg>
