<svg width="23" height="17" viewBox="0 0 23 17" fill="none" xmlns="http://www.w3.org/2000/svg">
<g clip-path="url(#clip0_7_114)">
<path d="M15.6063 14.5689H4.58999C3.85957 14.5689 3.15906 14.356 2.64257 13.9771C2.12608 13.5981 1.83592 13.0841 1.83592 12.5482V7.15974C1.83592 6.9811 1.7392 6.80978 1.56704 6.68346C1.39488 6.55715 1.16138 6.48618 0.9179 6.48618C0.674426 6.48618 0.440923 6.55715 0.26876 6.68346C0.0965979 6.80978 -0.00012207 6.9811 -0.00012207 7.15974L-0.00012207 12.5482C-0.00012207 13.4414 0.483478 14.298 1.34429 14.9296C2.2051 15.5612 3.37262 15.916 4.58999 15.916H15.6063C15.8497 15.916 16.0832 15.8451 16.2554 15.7187C16.4276 15.5924 16.5243 15.4211 16.5243 15.2425C16.5243 15.0638 16.4276 14.8925 16.2554 14.7662C16.0832 14.6399 15.8497 14.5689 15.6063 14.5689ZM19.2783 2.44482H6.42604C5.69561 2.44482 4.9951 2.65772 4.47862 3.03667C3.96213 3.41562 3.67197 3.92959 3.67197 4.4655V11.2011C3.67197 11.737 3.96213 12.251 4.47862 12.6299C4.9951 13.0089 5.69561 13.2218 6.42604 13.2218H19.2783C20.0088 13.2218 20.7093 13.0089 21.2258 12.6299C21.7423 12.251 22.0324 11.737 22.0324 11.2011V4.4655C22.0324 3.92959 21.7423 3.41562 21.2258 3.03667C20.7093 2.65772 20.0088 2.44482 19.2783 2.44482V2.44482ZM18.902 3.79194L13.504 7.75248C13.4186 7.81561 13.3171 7.86572 13.2052 7.89991C13.0934 7.93411 12.9734 7.95171 12.8522 7.95171C12.731 7.95171 12.611 7.93411 12.4991 7.89991C12.3873 7.86572 12.2857 7.81561 12.2004 7.75248L6.80242 3.79194H18.902ZM20.1964 11.2011C20.1964 11.3797 20.0997 11.5511 19.9275 11.6774C19.7553 11.8037 19.5218 11.8747 19.2783 11.8747H6.42604C6.18256 11.8747 5.94906 11.8037 5.7769 11.6774C5.60473 11.5511 5.50801 11.3797 5.50801 11.2011V4.71472L10.906 8.67525C11.4224 9.05366 12.1224 9.26621 12.8522 9.26621C13.582 9.26621 14.282 9.05366 14.7984 8.67525L20.1964 4.71472V11.2011Z" fill="#F1F5FD"/>
</g>
<defs>
<clipPath id="clip0_7_114">
<rect x="-0.00012207" width="22.0325" height="16.1654" rx="8.08272" fill="white"/>
</clipPath>
</defs>
</svg>
