<svg width="17" height="15" viewBox="0 0 17 15" fill="none" xmlns="http://www.w3.org/2000/svg">
<path fill-rule="evenodd" clip-rule="evenodd" d="M8.49988 15C6.3855 15 2.12488 8.91937 2.12488 5.60812C2.12488 2.51062 4.97875 0 8.49988 0C12.021 0 14.8749 2.51062 14.8749 5.60812C14.8749 8.91937 10.6143 15 8.49988 15ZM8.49988 1.90125C6.1645 1.89563 4.26369 3.55312 4.24988 5.60812C4.46557 7.39875 5.18488 9.11156 6.34513 10.5956C6.83388 11.3025 7.3885 11.9738 8.00688 12.5962C8.25763 12.8306 8.49988 13.0238 8.49988 13.0238C8.49988 13.0238 8.74425 12.8363 8.99394 12.5962C9.61232 11.9728 10.168 11.3025 10.6546 10.5947C11.8128 9.11344 12.5353 7.39781 12.7499 5.60906C12.7361 3.55406 10.8353 1.89656 8.49988 1.90219V1.90125ZM8.49988 7.5225C7.33644 7.51594 6.39932 6.68156 6.40463 5.65688C6.40994 4.635 7.35663 3.80813 8.519 3.81C9.6835 3.81375 10.6259 4.64438 10.6249 5.66625C10.6228 6.16125 10.3975 6.63469 9.998 6.9825C9.60063 7.32937 9.06088 7.52625 8.49988 7.5225Z" fill="#F1F5FD"/>
</svg>
